<svg xmlns="http://www.w3.org/2000/svg" width="49.335" height="46.762" viewBox="0 0 49.335 46.762">
  <g id="POD-With-Text" transform="translate(23 -0.113)">
    <g id="Logo" transform="translate(-23 0.113)">
      <g id="Group_3" data-name="Group 3">
        <path id="Path_31" data-name="Path 31" d="M61.4,184.3l-2.7,2.686h5.409Z" transform="translate(-47.676 -149.689)" fill="#ccb9da"/>
        <path id="Path_32" data-name="Path 32" d="M122.746,116.7H117.3l2.7,2.5Z" transform="translate(-95.271 -94.784)" fill="#ccb9da"/>
        <path id="Path_33" data-name="Path 33" d="M180.865,116.7H175.4l2.7,2.5Z" transform="translate(-142.46 -94.784)" fill="#ccb9da"/>
        <path id="Path_34" data-name="Path 34" d="M236.5,236.3l-2.7,2.385h5.427Z" transform="translate(-189.893 -191.923)" fill="#ccb9da"/>
        <path id="Path_35" data-name="Path 35" d="M251.9,0l-2.5,2.7,2.5,2.723Z" transform="translate(-202.563)" fill="#ccb9da"/>
        <path id="Path_36" data-name="Path 36" d="M2.7,2.7H46.837l2.5-2.7H0Z" fill="#7f3f98"/>
        <path id="Path_37" data-name="Path 37" d="M14.4,14.4H58.533l2.5,2.723H17.123Z" transform="translate(-11.696 -11.696)" fill="#9b71b1"/>
        <path id="Path_38" data-name="Path 38" d="M0,0V46.762l2.7-2.7V2.7Z" fill="#9b71b1"/>
        <path id="Path_39" data-name="Path 39" d="M14.4,14.4V55.753l2.723-2.723V17.123Z" transform="translate(-11.696 -11.696)" fill="#7f3f98"/>
        <path id="Path_40" data-name="Path 40" d="M97.011,58.6H58.7l2.686,2.7h32.9Z" transform="translate(-47.676 -47.595)" fill="#7f3f98"/>
        <path id="Path_41" data-name="Path 41" d="M105.9,73H73l2.723,2.723H103.2Z" transform="translate(-59.291 -59.291)" fill="#9b71b1"/>
        <path id="Path_42" data-name="Path 42" d="M58.7,84.892V58.6l2.7,2.686V82.206Z" transform="translate(-47.676 -47.595)" fill="#9b71b1"/>
        <path id="Path_43" data-name="Path 43" d="M73.1,93.9V73l2.7,2.723V96.587Z" transform="translate(-59.372 -59.291)" fill="#7f3f98"/>
        <path id="Path_44" data-name="Path 44" d="M250.923,94.357V58.6L248.2,61.3V91.972Z" transform="translate(-201.588 -47.595)" fill="#9b71b1"/>
        <path id="Path_45" data-name="Path 45" d="M236.5,103.667V73l-2.7,2.7v30.348Z" transform="translate(-189.893 -59.291)" fill="#7f3f98"/>
        <path id="Path_46" data-name="Path 46" d="M38.4,237.3H0l2.7-2.7h32.94Z" transform="translate(0 -190.542)" fill="#7f3f98"/>
        <path id="Path_47" data-name="Path 47" d="M47.34,222.823H14.4l2.723-2.723H44.636Z" transform="translate(-11.696 -178.766)" fill="#9b71b1"/>
        <path id="Path_48" data-name="Path 48" d="M120,138.841V119.2l-2.7-2.5v19.418Z" transform="translate(-95.271 -94.784)" fill="#7f3f98"/>
        <path id="Path_49" data-name="Path 49" d="M131.7,138.841V119.2l2.742-2.5v19.418Z" transform="translate(-106.967 -94.784)" fill="#9b71b1"/>
        <path id="Path_50" data-name="Path 50" d="M178.1,138.841V119.2l-2.7-2.5v19.418Z" transform="translate(-142.46 -94.784)" fill="#7f3f98"/>
        <path id="Path_51" data-name="Path 51" d="M189.8,138.841V119.2l2.761-2.5v24.846Z" transform="translate(-154.156 -94.784)" fill="#9b71b1"/>
      </g>
    </g>
  </g>
</svg>
