<?xml version="1.0" encoding="utf-8"?>
<!-- Generator: Adobe Illustrator 22.0.1, SVG Export Plug-In . SVG Version: 6.00 Build 0)  -->
<svg version="1.1" xmlns="http://www.w3.org/2000/svg" xmlns:xlink="http://www.w3.org/1999/xlink" x="0px" y="0px"
	 viewBox="0 0 814.8 249.7" style="enable-background:new 0 0 814.8 249.7;" xml:space="preserve">
<style type="text/css">
	.st0{fill:#9B71B1;}
	.st1{fill:#9B71B1;stroke:#CCB9DA;stroke-width:4;stroke-miterlimit:10;}
	.st2{fill:#7F3F98;stroke:#CCB9DA;stroke-width:2;stroke-miterlimit:10;}
	.st3{fill:none;stroke:#CCB9DA;stroke-width:2;stroke-miterlimit:10;}
	.st4{fill:#CCB9DA;}
	.st5{fill:#7F3F98;}
</style>
<g id="Text">
	<g>
		<path d="M293.1,221.2h2.6v3.8c1-1.4,2.2-2.5,3.6-3.2c1.4-0.7,2.9-1.1,4.5-1.1c2.9,0,5.4,1,7.4,3.1c2.1,2.1,3.1,4.6,3.1,7.5
			c0,3-1,5.6-3.1,7.7s-4.5,3.1-7.4,3.1c-1.6,0-3.1-0.3-4.5-1c-1.4-0.7-2.6-1.7-3.7-3v11h-2.6V221.2z M303.6,223.2
			c-2.3,0-4.2,0.8-5.7,2.4c-1.6,1.6-2.3,3.6-2.3,5.9c0,1.6,0.3,2.9,1,4.2c0.7,1.2,1.7,2.2,3,2.9s2.7,1.1,4.1,1.1
			c1.4,0,2.7-0.4,4-1.1c1.2-0.7,2.2-1.8,3-3.1s1.1-2.7,1.1-4.1c0-1.5-0.4-2.8-1.1-4.1c-0.7-1.3-1.7-2.3-3-3S305.1,223.2,303.6,223.2
			z"/>
		<path d="M317.6,221.2h2.7v3c0.8-1.2,1.6-2.1,2.5-2.6c0.9-0.6,1.8-0.9,2.8-0.9c0.7,0,1.5,0.2,2.3,0.7l-1.4,2.2
			c-0.6-0.2-1-0.4-1.4-0.4c-0.9,0-1.7,0.4-2.5,1.1c-0.8,0.7-1.4,1.8-1.9,3.4c-0.3,1.2-0.5,3.5-0.5,7.1v6.9h-2.7V221.2z"/>
		<path d="M339,220.7c3.1,0,5.8,1.1,7.8,3.4c1.9,2.1,2.8,4.5,2.8,7.4c0,2.9-1,5.3-3,7.5c-2,2.1-4.5,3.2-7.7,3.2
			c-3.1,0-5.7-1.1-7.7-3.2c-2-2.1-3-4.6-3-7.5c0-2.8,0.9-5.3,2.8-7.4C333.3,221.9,335.9,220.7,339,220.7z M339,223.3
			c-2.2,0-4.1,0.8-5.6,2.4s-2.4,3.6-2.4,5.9c0,1.5,0.4,2.9,1.1,4.1c0.7,1.3,1.7,2.3,2.9,3c1.2,0.7,2.6,1,4,1s2.8-0.3,4-1
			c1.2-0.7,2.2-1.7,2.9-3c0.7-1.3,1.1-2.7,1.1-4.1c0-2.3-0.8-4.2-2.4-5.9C343.1,224.1,341.2,223.3,339,223.3z"/>
		<path d="M371.4,221.2h2.6v16.3c0,2.9-0.3,5-0.8,6.3c-0.7,1.9-1.9,3.3-3.6,4.3c-1.7,1-3.7,1.5-6.1,1.5c-1.8,0-3.3-0.2-4.7-0.7
			c-1.4-0.5-2.5-1.2-3.4-2c-0.9-0.8-1.7-2.1-2.4-3.7h2.9c0.8,1.4,1.8,2.4,3,3s2.8,1,4.6,1c1.8,0,3.3-0.3,4.5-1
			c1.2-0.7,2.1-1.5,2.6-2.5c0.5-1,0.8-2.6,0.8-4.9v-1.1c-1,1.3-2.2,2.2-3.6,2.9c-1.4,0.7-2.9,1-4.5,1c-1.9,0-3.6-0.5-5.3-1.4
			s-2.9-2.2-3.8-3.8s-1.4-3.3-1.4-5.2s0.5-3.7,1.4-5.3c0.9-1.6,2.2-2.9,3.9-3.9c1.7-1,3.4-1.4,5.3-1.4c1.5,0,3,0.3,4.3,0.9
			c1.3,0.6,2.6,1.7,3.8,3.1V221.2z M363.6,223.2c-1.5,0-2.9,0.4-4.2,1.1c-1.3,0.7-2.3,1.7-3,3c-0.7,1.3-1.1,2.6-1.1,4.1
			c0,2.2,0.8,4.1,2.3,5.6c1.5,1.5,3.4,2.2,5.8,2.2c2.4,0,4.4-0.7,5.8-2.2c1.5-1.5,2.2-3.4,2.2-5.7c0-1.5-0.3-2.9-1-4.1
			c-0.7-1.2-1.6-2.2-2.9-2.9C366.4,223.6,365.1,223.2,363.6,223.2z"/>
		<path d="M377.9,221.2h2.7v3c0.8-1.2,1.6-2.1,2.5-2.6c0.9-0.6,1.8-0.9,2.8-0.9c0.7,0,1.5,0.2,2.3,0.7l-1.4,2.2
			c-0.6-0.2-1-0.4-1.4-0.4c-0.9,0-1.7,0.4-2.5,1.1c-0.8,0.7-1.4,1.8-1.9,3.4c-0.3,1.2-0.5,3.5-0.5,7.1v6.9h-2.7V221.2z"/>
		<path d="M410,221.2v20.4h-2.6v-3.5c-1.1,1.3-2.3,2.3-3.7,3c-1.4,0.7-2.9,1-4.5,1c-2.9,0-5.4-1-7.4-3.1s-3.1-4.6-3.1-7.7
			c0-2.9,1-5.5,3.1-7.5c2.1-2.1,4.6-3.1,7.5-3.1c1.7,0,3.2,0.4,4.6,1.1c1.4,0.7,2.6,1.8,3.6,3.2v-3.8H410z M399.5,223.2
			c-1.5,0-2.8,0.4-4.1,1.1s-2.2,1.7-3,3c-0.7,1.3-1.1,2.7-1.1,4.1c0,1.4,0.4,2.8,1.1,4.1c0.7,1.3,1.7,2.3,3,3.1
			c1.2,0.7,2.6,1.1,4,1.1c1.4,0,2.8-0.4,4.1-1.1c1.3-0.7,2.3-1.7,3-2.9c0.7-1.2,1-2.6,1-4.2c0-2.4-0.8-4.3-2.3-5.9
			C403.7,224,401.8,223.2,399.5,223.2z"/>
		<path d="M415.2,221.2h2.6v3.5c0.9-1.3,1.9-2.3,2.8-2.9c1.3-0.8,2.7-1.2,4.2-1.2c1,0,1.9,0.2,2.8,0.6c0.9,0.4,1.6,0.9,2.2,1.5
			c0.6,0.6,1.1,1.6,1.5,2.8c0.9-1.6,2-2.8,3.3-3.7c1.3-0.8,2.7-1.2,4.2-1.2c1.4,0,2.7,0.4,3.7,1.1c1.1,0.7,1.9,1.7,2.4,3
			s0.8,3.2,0.8,5.7v11.2H443v-11.2c0-2.2-0.2-3.7-0.5-4.5c-0.3-0.8-0.8-1.5-1.6-2c-0.8-0.5-1.7-0.8-2.7-0.8c-1.3,0-2.4,0.4-3.5,1.1
			c-1.1,0.8-1.8,1.8-2.3,3c-0.5,1.3-0.7,3.3-0.7,6.3v8h-2.6v-10.5c0-2.5-0.2-4.1-0.5-5c-0.3-0.9-0.8-1.6-1.6-2.1
			c-0.8-0.5-1.7-0.8-2.7-0.8c-1.2,0-2.4,0.4-3.4,1.1c-1.1,0.7-1.8,1.7-2.3,3c-0.5,1.2-0.8,3.1-0.8,5.7v8.7h-2.6V221.2z"/>
		<path d="M450.5,221.2h2.6v3.5c0.9-1.3,1.9-2.3,2.8-2.9c1.3-0.8,2.7-1.2,4.2-1.2c1,0,1.9,0.2,2.8,0.6c0.9,0.4,1.6,0.9,2.2,1.5
			c0.6,0.6,1.1,1.6,1.5,2.8c0.9-1.6,2-2.8,3.3-3.7c1.3-0.8,2.7-1.2,4.2-1.2c1.4,0,2.7,0.4,3.7,1.1c1.1,0.7,1.9,1.7,2.4,3
			s0.8,3.2,0.8,5.7v11.2h-2.7v-11.2c0-2.2-0.2-3.7-0.5-4.5c-0.3-0.8-0.8-1.5-1.6-2c-0.8-0.5-1.7-0.8-2.7-0.8c-1.3,0-2.4,0.4-3.5,1.1
			c-1.1,0.8-1.8,1.8-2.3,3c-0.5,1.3-0.7,3.3-0.7,6.3v8h-2.6v-10.5c0-2.5-0.2-4.1-0.5-5c-0.3-0.9-0.8-1.6-1.6-2.1
			c-0.8-0.5-1.7-0.8-2.7-0.8c-1.2,0-2.4,0.4-3.4,1.1c-1.1,0.7-1.8,1.7-2.3,3c-0.5,1.2-0.8,3.1-0.8,5.7v8.7h-2.6V221.2z"/>
		<path d="M506.2,221.2v20.4h-2.6v-3.5c-1.1,1.3-2.3,2.3-3.7,3c-1.4,0.7-2.9,1-4.5,1c-2.9,0-5.4-1-7.4-3.1s-3.1-4.6-3.1-7.7
			c0-2.9,1-5.5,3.1-7.5c2.1-2.1,4.6-3.1,7.5-3.1c1.7,0,3.2,0.4,4.6,1.1c1.4,0.7,2.6,1.8,3.6,3.2v-3.8H506.2z M495.7,223.2
			c-1.5,0-2.8,0.4-4.1,1.1s-2.2,1.7-3,3c-0.7,1.3-1.1,2.7-1.1,4.1c0,1.4,0.4,2.8,1.1,4.1c0.7,1.3,1.7,2.3,3,3.1
			c1.2,0.7,2.6,1.1,4,1.1c1.4,0,2.8-0.4,4.1-1.1c1.3-0.7,2.3-1.7,3-2.9c0.7-1.2,1-2.6,1-4.2c0-2.4-0.8-4.3-2.3-5.9
			C499.8,224,497.9,223.2,495.7,223.2z"/>
		<path d="M511.5,241.7v-28.3h2.6v11.4c1.1-1.4,2.3-2.4,3.7-3c1.4-0.7,2.9-1,4.5-1c2.9,0,5.4,1,7.4,3.1c2,2.1,3.1,4.6,3.1,7.6
			c0,3-1,5.5-3.1,7.6c-2.1,2.1-4.5,3.1-7.4,3.1c-1.7,0-3.2-0.4-4.5-1.1c-1.4-0.7-2.5-1.8-3.6-3.2v3.8H511.5z M522,239.7
			c1.5,0,2.8-0.4,4-1.1c1.2-0.7,2.2-1.7,3-3c0.7-1.3,1.1-2.7,1.1-4.1c0-1.5-0.4-2.8-1.1-4.2c-0.7-1.3-1.7-2.3-3-3.1
			c-1.2-0.7-2.6-1.1-4-1.1c-1.4,0-2.8,0.4-4.1,1.1s-2.3,1.7-3,3c-0.7,1.2-1,2.6-1,4.2c0,2.4,0.8,4.3,2.3,5.9
			C517.8,238.9,519.7,239.7,522,239.7z"/>
		<path d="M536.4,213.3h2.6v28.3h-2.6V213.3z"/>
		<path d="M560.9,234.9l2.2,1.2c-0.7,1.4-1.6,2.6-2.5,3.5s-2,1.5-3.2,2c-1.2,0.5-2.5,0.7-4,0.7c-3.3,0-5.9-1.1-7.8-3.3
			c-1.9-2.2-2.8-4.7-2.8-7.4c0-2.6,0.8-4.9,2.4-6.9c2-2.6,4.7-3.9,8.1-3.9c3.5,0,6.3,1.3,8.3,4c1.5,1.9,2.2,4.2,2.3,7h-18.4
			c0,2.4,0.8,4.3,2.3,5.8c1.5,1.5,3.3,2.3,5.4,2.3c1,0,2.1-0.2,3-0.5c1-0.4,1.8-0.8,2.5-1.4C559.4,237.2,560.1,236.2,560.9,234.9z
			 M560.9,229.4c-0.4-1.4-0.9-2.5-1.5-3.4c-0.7-0.8-1.6-1.5-2.7-2c-1.1-0.5-2.3-0.8-3.5-0.8c-2,0-3.7,0.6-5.2,1.9
			c-1.1,0.9-1.8,2.3-2.4,4.2H560.9z"/>
		<path d="M587.5,220.7c3.1,0,5.8,1.1,7.8,3.4c1.9,2.1,2.8,4.5,2.8,7.4c0,2.9-1,5.3-3,7.5c-2,2.1-4.5,3.2-7.7,3.2
			c-3.1,0-5.7-1.1-7.7-3.2c-2-2.1-3-4.6-3-7.5c0-2.8,0.9-5.3,2.8-7.4C581.7,221.9,584.3,220.7,587.5,220.7z M587.5,223.3
			c-2.2,0-4.1,0.8-5.6,2.4s-2.4,3.6-2.4,5.9c0,1.5,0.4,2.9,1.1,4.1c0.7,1.3,1.7,2.3,2.9,3c1.2,0.7,2.6,1,4,1s2.8-0.3,4-1
			c1.2-0.7,2.2-1.7,2.9-3c0.7-1.3,1.1-2.7,1.1-4.1c0-2.3-0.8-4.2-2.4-5.9C591.5,224.1,589.6,223.3,587.5,223.3z"/>
		<path d="M602.2,221.2h2.6v3.7c1.1-1.4,2.2-2.5,3.5-3.1c1.3-0.7,2.7-1,4.2-1c1.5,0,2.9,0.4,4.1,1.2c1.2,0.8,2.1,1.8,2.6,3.1
			c0.6,1.3,0.8,3.4,0.8,6.1v10.5h-2.6v-9.7c0-2.4-0.1-3.9-0.3-4.7c-0.3-1.4-0.9-2.4-1.8-3.1s-2-1-3.4-1c-1.6,0-3,0.5-4.3,1.6
			c-1.3,1.1-2.1,2.4-2.5,3.9c-0.3,1-0.4,2.9-0.4,5.6v7.5h-2.6V221.2z"/>
		<path d="M635.2,223.5l-1.7,1.7c-1.4-1.4-2.8-2-4.1-2c-0.9,0-1.6,0.3-2.2,0.8c-0.6,0.6-0.9,1.2-0.9,2c0,0.7,0.3,1.3,0.8,1.9
			c0.5,0.6,1.6,1.3,3.2,2.2c2,1,3.3,2,4,2.9c0.7,1,1,2,1,3.2c0,1.7-0.6,3.1-1.8,4.3c-1.2,1.2-2.7,1.7-4.4,1.7
			c-1.2,0-2.3-0.3-3.4-0.8c-1.1-0.5-2-1.2-2.7-2.1l1.7-1.9c1.3,1.5,2.8,2.3,4.3,2.3c1.1,0,2-0.3,2.7-1s1.1-1.5,1.1-2.4
			c0-0.8-0.2-1.4-0.7-2c-0.5-0.6-1.6-1.3-3.3-2.2c-1.8-1-3.1-1.9-3.8-2.8c-0.7-0.9-1-2-1-3.2c0-1.6,0.5-2.8,1.6-3.9s2.4-1.5,4-1.5
			C631.4,220.7,633.3,221.6,635.2,223.5z"/>
		<path d="M640,212.8c0.6,0,1.1,0.2,1.5,0.6c0.4,0.4,0.6,0.9,0.6,1.5c0,0.6-0.2,1.1-0.6,1.5s-0.9,0.6-1.5,0.6
			c-0.6,0-1.1-0.2-1.5-0.6c-0.4-0.4-0.6-0.9-0.6-1.5c0-0.6,0.2-1.1,0.6-1.5C638.9,213,639.4,212.8,640,212.8z M638.7,221.2h2.6v20.4
			h-2.6V221.2z"/>
		<path d="M648.3,213.6h2.6v7.6h4.2v2.3h-4.2v18.2h-2.6v-18.2h-3.6v-2.3h3.6V213.6z"/>
		<path d="M675.5,234.9l2.2,1.2c-0.7,1.4-1.6,2.6-2.5,3.5s-2,1.5-3.2,2c-1.2,0.5-2.5,0.7-4,0.7c-3.3,0-5.9-1.1-7.8-3.3
			c-1.9-2.2-2.8-4.7-2.8-7.4c0-2.6,0.8-4.9,2.4-6.9c2-2.6,4.7-3.9,8.1-3.9c3.5,0,6.3,1.3,8.3,4c1.5,1.9,2.2,4.2,2.3,7H660
			c0,2.4,0.8,4.3,2.3,5.8c1.5,1.5,3.3,2.3,5.4,2.3c1,0,2.1-0.2,3-0.5c1-0.4,1.8-0.8,2.5-1.4C673.9,237.2,674.7,236.2,675.5,234.9z
			 M675.5,229.4c-0.4-1.4-0.9-2.5-1.5-3.4c-0.7-0.8-1.6-1.5-2.7-2c-1.1-0.5-2.3-0.8-3.5-0.8c-2,0-3.7,0.6-5.2,1.9
			c-1.1,0.9-1.8,2.3-2.4,4.2H675.5z"/>
		<path d="M712.8,213.3v28.3h-2.6v-3.5c-1.1,1.3-2.3,2.3-3.7,3c-1.4,0.7-2.9,1-4.5,1c-2.9,0-5.4-1-7.4-3.1s-3.1-4.6-3.1-7.7
			c0-2.9,1-5.5,3.1-7.5c2.1-2.1,4.6-3.1,7.5-3.1c1.7,0,3.2,0.4,4.6,1.1c1.4,0.7,2.6,1.8,3.6,3.2v-11.6H712.8z M702.3,223.2
			c-1.5,0-2.8,0.4-4.1,1.1s-2.2,1.7-3,3c-0.7,1.3-1.1,2.7-1.1,4.1c0,1.4,0.4,2.8,1.1,4.1s1.7,2.3,3,3.1c1.2,0.7,2.6,1.1,4,1.1
			c1.4,0,2.8-0.4,4.1-1.1s2.3-1.7,3-2.9c0.7-1.2,1-2.6,1-4.2c0-2.4-0.8-4.3-2.3-5.9C706.5,224,704.5,223.2,702.3,223.2z"/>
		<path d="M718.9,212.8c0.6,0,1.1,0.2,1.5,0.6c0.4,0.4,0.6,0.9,0.6,1.5c0,0.6-0.2,1.1-0.6,1.5s-0.9,0.6-1.5,0.6
			c-0.6,0-1.1-0.2-1.5-0.6c-0.4-0.4-0.6-0.9-0.6-1.5c0-0.6,0.2-1.1,0.6-1.5C717.8,213,718.3,212.8,718.9,212.8z M717.6,221.2h2.6
			v20.4h-2.6V221.2z"/>
		<path d="M735.2,223.5l-1.7,1.7c-1.4-1.4-2.8-2-4.1-2c-0.9,0-1.6,0.3-2.2,0.8c-0.6,0.6-0.9,1.2-0.9,2c0,0.7,0.3,1.3,0.8,1.9
			c0.5,0.6,1.6,1.3,3.2,2.2c2,1,3.3,2,4,2.9c0.7,1,1,2,1,3.2c0,1.7-0.6,3.1-1.8,4.3c-1.2,1.2-2.7,1.7-4.4,1.7
			c-1.2,0-2.3-0.3-3.4-0.8c-1.1-0.5-2-1.2-2.7-2.1l1.7-1.9c1.3,1.5,2.8,2.3,4.3,2.3c1.1,0,2-0.3,2.7-1s1.1-1.5,1.1-2.4
			c0-0.8-0.2-1.4-0.7-2c-0.5-0.6-1.6-1.3-3.3-2.2c-1.8-1-3.1-1.9-3.8-2.8c-0.7-0.9-1-2-1-3.2c0-1.6,0.5-2.8,1.6-3.9s2.4-1.5,4-1.5
			C731.4,220.7,733.2,221.6,735.2,223.5z"/>
		<path d="M739.1,221.2h2.6v3.8c1-1.4,2.2-2.5,3.6-3.2c1.4-0.7,2.9-1.1,4.5-1.1c2.9,0,5.4,1,7.4,3.1c2.1,2.1,3.1,4.6,3.1,7.5
			c0,3-1,5.6-3.1,7.7s-4.5,3.1-7.4,3.1c-1.6,0-3.1-0.3-4.5-1c-1.4-0.7-2.6-1.7-3.7-3v11h-2.6V221.2z M749.6,223.2
			c-2.3,0-4.2,0.8-5.7,2.4c-1.6,1.6-2.3,3.6-2.3,5.9c0,1.6,0.3,2.9,1,4.2c0.7,1.2,1.7,2.2,3,2.9s2.7,1.1,4.1,1.1
			c1.4,0,2.7-0.4,4-1.1c1.2-0.7,2.2-1.8,3-3.1s1.1-2.7,1.1-4.1c0-1.5-0.4-2.8-1.1-4.1c-0.7-1.3-1.7-2.3-3-3S751.1,223.2,749.6,223.2
			z"/>
		<path d="M764.1,213.3h2.6v28.3h-2.6V213.3z"/>
		<path d="M791.8,221.2v20.4h-2.6v-3.5c-1.1,1.3-2.3,2.3-3.7,3c-1.4,0.7-2.9,1-4.5,1c-2.9,0-5.4-1-7.4-3.1s-3.1-4.6-3.1-7.7
			c0-2.9,1-5.5,3.1-7.5c2.1-2.1,4.6-3.1,7.5-3.1c1.7,0,3.2,0.4,4.6,1.1c1.4,0.7,2.6,1.8,3.6,3.2v-3.8H791.8z M781.3,223.2
			c-1.5,0-2.8,0.4-4.1,1.1s-2.2,1.7-3,3c-0.7,1.3-1.1,2.7-1.1,4.1c0,1.4,0.4,2.8,1.1,4.1c0.7,1.3,1.7,2.3,3,3.1
			c1.2,0.7,2.6,1.1,4,1.1c1.4,0,2.8-0.4,4.1-1.1c1.3-0.7,2.3-1.7,3-2.9c0.7-1.2,1-2.6,1-4.2c0-2.4-0.8-4.3-2.3-5.9
			C785.5,224,783.6,223.2,781.3,223.2z"/>
		<path d="M794.7,221.2h2.8l7,15.7l6.8-15.7h2.8L802,249.1h-2.8l3.9-9L794.7,221.2z"/>
	</g>
	<ellipse class="st0" cx="529.7" cy="93.5" rx="87.5" ry="86.5"/>
	<g>
		<path d="M293,0h36.8C351,0,365.2,1,372.6,2.9c10.6,2.7,19.2,8.2,25.9,16.5c6.7,8.3,10.1,18.7,10.1,31.3c0,12.7-3.3,23.1-9.8,31.3
			c-6.5,8.2-15.5,13.8-27,16.6c-8.4,2.1-24.1,3.1-47,3.1h-13.2V190H293V0z M311.5,18.6v64.4l31.3,0.4c12.7,0,21.9-1.2,27.8-3.5
			c5.9-2.4,10.5-6.2,13.8-11.5c3.4-5.3,5-11.2,5-17.7c0-6.4-1.7-12.2-5-17.5c-3.4-5.3-7.8-9-13.3-11.3c-5.5-2.2-14.5-3.4-27-3.4
			H311.5z"/>
		<path d="M528.4,0c28,0,51.5,9.1,70.3,27.4c18.9,18.2,28.3,40.7,28.3,67.4c0,26.4-9.4,48.9-28.2,67.3
			C580,180.4,557,189.6,530,189.6c-27.4,0-50.6-9.2-69.4-27.5c-18.9-18.3-28.3-40.5-28.3-66.5c0-17.3,4.3-33.4,12.9-48.2
			c8.6-14.8,20.3-26.4,35.2-34.8C495.1,4.2,511.2,0,528.4,0z M529.3,17.6c-13.7,0-26.7,3.5-38.9,10.4c-12.3,7-21.8,16.3-28.7,28.1
			c-6.9,11.8-10.3,24.9-10.3,39.4c0,21.5,7.6,39.6,22.9,54.4c15.2,14.8,33.6,22.2,55.1,22.2c14.4,0,27.6-3.4,39.9-10.2
			c12.2-6.8,21.7-16.1,28.6-27.9c6.8-11.8,10.3-24.9,10.3-39.3c0-14.3-3.4-27.3-10.3-38.9C590.9,44.2,581.2,35,568.8,28
			C556.4,21,543.2,17.6,529.3,17.6z"/>
		<path d="M659,190V0h38.3c27.7,0,47.7,2.3,60.2,6.8c17.9,6.5,32,17.6,42.1,33.6c10.1,15.9,15.2,34.9,15.2,56.9c0,19-4,35.8-12,50.2
			c-8,14.5-18.4,25.1-31.2,32c-12.8,6.9-30.7,10.3-53.8,10.3H659z M676.8,172.1h21.4c25.6,0,43.3-1.6,53.2-4.9
			c13.9-4.6,24.9-13,32.8-25.1c8-12.1,11.9-26.9,11.9-44.3c0-18.3-4.3-34-13-47c-8.6-13-20.7-21.9-36.1-26.7
			c-11.6-3.6-30.6-5.4-57.2-5.4h-13.1V172.1z"/>
	</g>
	<line class="st1" x1="477.2" y1="96" x2="588.2" y2="96"/>
	<line class="st2" x1="499.2" y1="54" x2="560.2" y2="54"/>
	<line class="st3" x1="499.2" y1="136" x2="560.2" y2="136"/>
</g>
<g id="Logo">
	<g>
		<polygon class="st4" points="73.1,184.3 58.7,198.6 87.5,198.6 73.1,184.3 		"/>
		<polygon class="st4" points="146.3,116.7 117.3,116.7 131.7,130 146.3,116.7 		"/>
		<polygon class="st4" points="204.5,116.7 175.4,116.7 189.8,130 204.5,116.7 		"/>
		<polygon class="st4" points="248.2,236.3 233.8,249 262.7,249 248.2,236.3 		"/>
		<polygon class="st4" points="262.7,0 249.4,14.4 262.7,28.9 262.7,0 		"/>
		<polygon class="st5" points="14.4,14.4 249.4,14.4 262.7,0 0,0 14.4,14.4 		"/>
		<polygon class="st0" points="14.4,14.4 249.4,14.4 262.7,28.9 28.9,28.9 14.4,14.4 		"/>
		<polygon class="st0" points="0,0 0,249 14.4,234.6 14.4,14.4 0,0 		"/>
		<polygon class="st5" points="14.4,14.4 14.4,234.6 28.9,220.1 28.9,28.9 14.4,14.4 		"/>
		<polygon class="st5" points="262.7,58.6 58.7,58.6 73,73 248.2,73 262.7,58.6 		"/>
		<polygon class="st0" points="248.2,73 73,73 87.5,87.5 233.8,87.5 248.2,73 		"/>
		<polygon class="st0" points="58.7,198.6 58.7,58.6 73.1,72.9 73.1,184.3 58.7,198.6 		"/>
		<polygon class="st5" points="73.1,184.3 73.1,73 87.5,87.5 87.5,198.6 73.1,184.3 		"/>
		<polygon class="st0" points="262.7,249 262.7,58.6 248.2,73 248.2,236.3 262.7,249 		"/>
		<polygon class="st5" points="248.2,236.3 248.2,73 233.8,87.4 233.8,249 248.2,236.3 		"/>
		<polygon class="st5" points="204.5,249 0,249 14.4,234.6 189.8,234.6 204.5,249 		"/>
		<polygon class="st0" points="189.8,234.6 14.4,234.6 28.9,220.1 175.4,220.1 189.8,234.6 		"/>
		<polygon class="st5" points="131.7,234.6 131.7,130 117.3,116.7 117.3,220.1 131.7,234.6 		"/>
		<polygon class="st0" points="131.7,234.6 131.7,130 146.3,116.7 146.3,220.1 131.7,234.6 		"/>
		<polygon class="st5" points="189.8,234.6 189.8,130 175.4,116.7 175.4,220.1 189.8,234.6 		"/>
		<polygon class="st0" points="189.8,234.6 189.8,130 204.5,116.7 204.5,249 189.8,234.6 		"/>
	</g>
</g>
</svg>
